<?xml version="1.0" encoding="UTF-8" standalone="no"?>
<!-- Created with Vectornator (http://vectornator.io/) -->

<svg
   height="100%"
   stroke-miterlimit="10"
   style="fill-rule:nonzero;clip-rule:evenodd;stroke-linecap:round;stroke-linejoin:round;"
   version="1.1"
   viewBox="0 0 1440.95 991.82"
   width="100%"
   xml:space="preserve"
   id="svg50"
   sodipodi:docname="ATI LOGO.svg"
   inkscape:export-filename="../Documents/Design Works/BRAND LOGOS/ATI LOGO5.png"
   inkscape:export-xdpi="19.986814"
   inkscape:export-ydpi="19.986814"
   inkscape:version="1.4.3 (0d15f750, 2025-12-25)"
   xmlns:inkscape="http://www.inkscape.org/namespaces/inkscape"
   xmlns:sodipodi="http://sodipodi.sourceforge.net/DTD/sodipodi-0.dtd"
   xmlns="http://www.w3.org/2000/svg"
   xmlns:svg="http://www.w3.org/2000/svg"
   xmlns:vectornator="http://vectornator.io"><sodipodi:namedview
   id="namedview50"
   pagecolor="#ffffff"
   bordercolor="#000000"
   borderopacity="0.25"
   inkscape:showpageshadow="2"
   inkscape:pageopacity="0.0"
   inkscape:pagecheckerboard="0"
   inkscape:deskcolor="#d1d1d1"
   inkscape:zoom="0.57066806"
   inkscape:cx="721.08468"
   inkscape:cy="495.91"
   inkscape:window-width="1171"
   inkscape:window-height="715"
   inkscape:window-x="0"
   inkscape:window-y="25"
   inkscape:window-maximized="0"
   inkscape:current-layer="Layer-1" />
<defs
   id="defs6">
<linearGradient
   gradientTransform="matrix(4.51286 -514.823 492.823 4.71432 511.527 724.154)"
   gradientUnits="userSpaceOnUse"
   id="LinearGradient"
   x1="0"
   x2="1"
   y1="0"
   y2="0">
<stop
   offset="0"
   stop-color="#ffb500"
   id="stop1" />
<stop
   offset="1"
   stop-color="#000000"
   id="stop2" />
</linearGradient>
<linearGradient
   gradientTransform="matrix(4.51286 -514.823 492.823 4.71432 502.234 724.243)"
   gradientUnits="userSpaceOnUse"
   id="LinearGradient_2"
   x1="0"
   x2="1"
   y1="0"
   y2="0">
<stop
   offset="0"
   stop-color="#ffb500"
   id="stop3" />
<stop
   offset="1"
   stop-color="#000000"
   id="stop4" />
</linearGradient>
<linearGradient
   gradientTransform="matrix(4.51286 -514.823 492.823 4.71432 511.527 724.154)"
   gradientUnits="userSpaceOnUse"
   id="LinearGradient_3"
   x1="0"
   x2="1"
   y1="0"
   y2="0">
<stop
   offset="0"
   stop-color="#ffb500"
   id="stop5" />
<stop
   offset="1"
   stop-color="#000000"
   id="stop6" />
</linearGradient>
</defs>
<clipPath
   id="ArtboardFrame">
<rect
   height="991.82"
   width="1440.95"
   x="0"
   y="0"
   id="rect6" />
</clipPath>
<g
   clip-path="url(#ArtboardFrame)"
   id="Layer-1"
   vectornator:layerName="Layer 1">



<g
   id="g51"
   inkscape:export-filename="ATI LOGO1.png"
   inkscape:export-xdpi="45.281948"
   inkscape:export-ydpi="45.281948"><path
     d="M354.605 606.872L206.633 605.661L167.47 693.041L111.281 692.581L285.191 310.225L447.298 695.333L390.213 694.865L354.605 606.872Z"
     fill="url(#LinearGradient)"
     fill-rule="nonzero"
     opacity="0.762786"
     stroke="none"
     id="path6" /><path
     d="M333.723 555.484L283.38 432.29L228.732 554.624L333.723 555.484Z"
     fill="#ffffff"
     fill-rule="nonzero"
     opacity="0.762786"
     stroke="none"
     id="path7" /><path
     d="M559.648 386.54L557.323 696.398L505.163 695.971L507.488 386.113L428.017 385.462L428.401 334.248L639.279 335.974L638.895 387.189L559.648 386.54Z"
     fill="url(#LinearGradient_2)"
     fill-rule="nonzero"
     opacity="0.762786"
     stroke="none"
     id="path8" /><path
     d="M747.296 336.694L744.587 697.767L692.427 697.34L695.136 336.267L747.296 336.694Z"
     fill="url(#LinearGradient_3)"
     fill-rule="nonzero"
     opacity="0.762786"
     stroke="none"
     id="path9" /></g>
<g
   fill="#000000"
   opacity="0.762786"
   stroke="none"
   id="g35">
<path
   d="M840.223 414.856L807.982 414.856L799.593 433.147L787.35 433.147L824.615 353.105L860.563 433.147L848.125 433.147L840.223 414.856ZM835.589 404.174L824.42 378.566L812.713 404.174L835.589 404.174Z"
   id="path10" />
<path
   d="M869.977 433.147L869.977 352.715L924.899 410.173L924.899 357.836L936.263 357.836L936.263 437.732L881.341 380.42L881.341 433.147L869.977 433.147Z"
   id="path11" />
<path
   d="M965.676 357.836L965.676 433.147L954.311 433.147L954.311 357.836L965.676 357.836Z"
   id="path12" />
<path
   d="M981.138 433.147L996.99 352.178L1022.84 410.71L1049.62 352.178L1063.86 433.147L1052.2 433.147L1044.94 387.687L1022.65 436.61L1000.99 387.639L992.893 433.147L981.138 433.147Z"
   id="path13" />
<path
   d="M1121.37 368.518L1091.18 368.518L1091.18 386.614L1120.49 386.614L1120.49 397.296L1091.18 397.296L1091.18 422.465L1121.37 422.465L1121.37 433.147L1079.81 433.147L1079.81 357.836L1121.37 357.836L1121.37 368.518Z"
   id="path14" />
<path
   d="M1147.66 357.836L1147.66 433.147L1136.29 433.147L1136.29 357.836L1147.66 357.836Z"
   id="path15" />
<path
   d="M1204.48 393.931L1235.6 393.931L1235.6 396.418C1235.6 402.076 1234.94 407.084 1233.6 411.441C1232.3 415.474 1230.11 419.246 1227.02 422.758C1220.03 430.627 1211.13 434.561 1200.34 434.561C1189.8 434.561 1180.78 430.757 1173.27 423.148C1165.76 415.506 1162 406.336 1162 395.638C1162 384.712 1165.82 375.445 1173.46 367.836C1181.1 360.194 1190.4 356.373 1201.36 356.373C1207.25 356.373 1212.74 357.576 1217.85 359.983C1222.73 362.389 1227.52 366.291 1232.24 371.689L1224.14 379.444C1217.96 371.217 1210.43 367.104 1201.56 367.104C1193.59 367.104 1186.91 369.852 1181.51 375.347C1176.11 380.745 1173.41 387.509 1173.41 395.638C1173.41 404.027 1176.42 410.937 1182.44 416.368C1188.06 421.408 1194.16 423.928 1200.73 423.928C1206.32 423.928 1211.35 422.042 1215.8 418.27C1220.25 414.466 1222.74 409.913 1223.26 404.613L1204.48 404.613L1204.48 393.931Z"
   id="path16" />
<path
   d="M1261.26 387.297L1293.74 387.297L1293.74 357.836L1305.11 357.836L1305.11 433.147L1293.74 433.147L1293.74 397.979L1261.26 397.979L1261.26 433.147L1249.89 433.147L1249.89 357.836L1261.26 357.836L1261.26 387.297Z"
   id="path17" />
<path
   d="M1343.94 368.518L1343.94 433.147L1332.57 433.147L1332.57 368.518L1315.25 368.518L1315.25 357.836L1361.2 357.836L1361.2 368.518L1343.94 368.518Z"
   id="path18" />
<path
   d="M816.762 501.19L816.762 565.818L805.397 565.818L805.397 501.19L788.081 501.19L788.081 490.508L834.029 490.508L834.029 501.19L816.762 501.19Z"
   id="path19" />
<path
   d="M869.684 533.723L892.999 565.818L879.098 565.818L857.587 534.992L855.539 534.992L855.539 565.818L844.174 565.818L844.174 490.508L857.49 490.508C867.44 490.508 874.627 492.377 879.049 496.117C883.927 500.279 886.365 505.775 886.365 512.603C886.365 517.936 884.837 522.521 881.78 526.358C878.724 530.195 874.692 532.65 869.684 533.723ZM855.539 525.09L859.148 525.09C869.912 525.09 875.293 520.977 875.293 512.75C875.293 505.043 870.058 501.19 859.587 501.19L855.539 501.19L855.539 525.09Z"
   id="path20" />
<path
   d="M948.555 547.527L916.314 547.527L907.925 565.818L895.682 565.818L932.947 485.776L968.895 565.818L956.457 565.818L948.555 547.527ZM943.921 536.845L932.752 511.238L921.045 536.845L943.921 536.845Z"
   id="path21" />
<path
   d="M989.673 490.508L989.673 565.818L978.309 565.818L978.309 490.508L989.673 490.508Z"
   id="path22" />
<path
   d="M1007.77 565.818L1007.77 485.386L1062.69 542.845L1062.69 490.508L1074.06 490.508L1074.06 570.403L1019.13 513.091L1019.13 565.818L1007.77 565.818Z"
   id="path23" />
<path
   d="M1103.47 490.508L1103.47 565.818L1092.1 565.818L1092.1 490.508L1103.47 490.508Z"
   id="path24" />
<path
   d="M1121.56 565.818L1121.56 485.386L1176.49 542.845L1176.49 490.508L1187.85 490.508L1187.85 570.403L1132.93 513.091L1132.93 565.818L1121.56 565.818Z"
   id="path25" />
<path
   d="M1245.41 526.602L1276.53 526.602L1276.53 529.09C1276.53 534.748 1275.86 539.755 1274.53 544.113C1273.23 548.145 1271.03 551.917 1267.94 555.429C1260.95 563.298 1252.06 567.233 1241.26 567.233C1230.73 567.233 1221.7 563.428 1214.19 555.819C1206.68 548.177 1202.92 539.007 1202.92 528.309C1202.92 517.383 1206.74 508.116 1214.39 500.507C1222.03 492.865 1231.33 489.044 1242.29 489.044C1248.17 489.044 1253.67 490.248 1258.77 492.654C1263.65 495.06 1268.45 498.962 1273.16 504.36L1265.06 512.116C1258.89 503.889 1251.36 499.775 1242.48 499.775C1234.51 499.775 1227.83 502.523 1222.43 508.018C1217.04 513.416 1214.34 520.18 1214.34 528.309C1214.34 536.699 1217.34 543.609 1223.36 549.039C1228.99 554.079 1235.08 556.599 1241.65 556.599C1247.24 556.599 1252.27 554.713 1256.72 550.941C1261.18 547.137 1263.67 542.584 1264.19 537.284L1245.41 537.284L1245.41 526.602Z"
   id="path26" />
<path
   d="M807.348 623.179L807.348 698.489L795.983 698.489L795.983 623.179L807.348 623.179Z"
   id="path27" />
<path
   d="M825.444 698.489L825.444 618.057L880.366 675.516L880.366 623.179L891.731 623.179L891.731 703.074L836.809 645.762L836.809 698.489L825.444 698.489Z"
   id="path28" />
<path
   d="M952.36 634.398L943.141 639.86C941.418 636.869 939.775 634.918 938.215 634.007C936.589 632.967 934.491 632.446 931.922 632.446C928.768 632.446 926.151 633.341 924.069 635.129C921.988 636.885 920.948 639.096 920.948 641.763C920.948 645.437 923.679 648.396 929.142 650.64L936.654 653.713C942.767 656.184 947.238 659.2 950.067 662.761C952.896 666.322 954.311 670.687 954.311 675.857C954.311 682.784 952.002 688.507 947.384 693.027C942.734 697.579 936.963 699.855 930.069 699.855C923.533 699.855 918.135 697.92 913.875 694.051C909.68 690.181 907.063 684.735 906.022 677.711L917.533 675.174C918.054 679.597 918.964 682.653 920.265 684.344C922.606 687.596 926.02 689.222 930.508 689.222C934.052 689.222 936.995 688.035 939.336 685.661C941.678 683.288 942.848 680.28 942.848 676.638C942.848 675.174 942.645 673.833 942.239 672.614C941.832 671.394 941.198 670.272 940.336 669.248C939.475 668.224 938.361 667.265 936.995 666.37C935.629 665.476 934.004 664.622 932.118 663.81L924.85 660.785C914.542 656.428 909.388 650.055 909.388 641.665C909.388 636.007 911.55 631.276 915.875 627.471C920.2 623.634 925.582 621.716 932.02 621.716C940.702 621.716 947.482 625.943 952.36 634.398Z"
   id="path29" />
<path
   d="M990.21 633.861L990.21 698.489L978.845 698.489L978.845 633.861L961.53 633.861L961.53 623.179L1007.48 623.179L1007.48 633.861L990.21 633.861Z"
   id="path30" />
<path
   d="M1028.99 623.179L1028.99 698.489L1017.62 698.489L1017.62 623.179L1028.99 623.179Z"
   id="path31" />
<path
   d="M1067.86 633.861L1067.86 698.489L1056.5 698.489L1056.5 633.861L1039.18 633.861L1039.18 623.179L1085.13 623.179L1085.13 633.861L1067.86 633.861Z"
   id="path32" />
<path
   d="M1106.64 623.179L1106.64 668.541C1106.64 675.012 1107.7 679.743 1109.81 682.735C1112.96 687.06 1117.4 689.222 1123.13 689.222C1128.88 689.222 1133.34 687.06 1136.49 682.735C1138.6 679.841 1139.66 675.109 1139.66 668.541L1139.66 623.179L1151.03 623.179L1151.03 671.663C1151.03 679.597 1148.55 686.133 1143.61 691.271C1138.05 696.994 1131.22 699.855 1123.13 699.855C1115.03 699.855 1108.22 696.994 1102.69 691.271C1097.75 686.133 1095.27 679.597 1095.27 671.663L1095.27 623.179L1106.64 623.179Z"
   id="path33" />
<path
   d="M1189.85 633.861L1189.85 698.489L1178.49 698.489L1178.49 633.861L1161.17 633.861L1161.17 623.179L1207.12 623.179L1207.12 633.861L1189.85 633.861Z"
   id="path34" />
<path
   d="M1258.82 633.861L1228.63 633.861L1228.63 651.957L1257.94 651.957L1257.94 662.639L1228.63 662.639L1228.63 687.807L1258.82 687.807L1258.82 698.489L1217.26 698.489L1217.26 623.179L1258.82 623.179L1258.82 633.861Z"
   id="path35" />
</g>
<g
   fill="#000000"
   opacity="0"
   stroke="none"
   id="g50">
<path
   d="M-37.0463 45.3661L-27.3399 45.3661L-27.3399 108.483L8.94964 108.483L8.94964 117.018L-37.0463 117.018L-37.0463 45.3661Z"
   id="path36" />
<path
   d="M-36.1196 160.244L16.1197 160.244L16.1197 169.024L-26.657 169.024L-26.657 190.778L12.9005 190.778L12.9005 199.07L-26.657 199.07L-26.657 223.36L16.8514 223.36L16.8514 231.896L-36.1196 231.896L-36.1196 160.244Z"
   id="path37" />
<path
   d="M-0.26906 317.411L-11.1462 285.755L-22.7061 317.411L-0.26906 317.411ZM-16.2189 275.122L-5.24423 275.122L20.7535 346.774L10.1203 346.774L2.85262 325.312L-25.4864 325.312L-33.2418 346.774L-43.1921 346.774L-16.2189 275.122Z"
   id="path38" />
<path
   d="M-3.73217 422.826C0.820275 422.826 4.42159 421.915 7.07176 420.094C9.72193 418.273 11.047 414.989 11.047 410.241C11.047 405.136 9.19353 401.657 5.48653 399.803C3.50297 398.828 0.852793 398.34-2.46399 398.34L-26.1692 398.34L-26.1692 422.826L-3.73217 422.826ZM-35.8757 389.999L-2.70787 389.999C2.75507 389.999 7.25874 390.796 10.8031 392.389C17.5343 395.446 20.8998 401.088 20.8998 409.315C20.8998 413.607 20.0137 417.119 18.2415 419.85C16.4693 422.582 13.9899 424.777 10.8031 426.435C13.5996 427.573 15.7051 429.069 17.1197 430.923C18.5342 432.776 19.3227 435.784 19.4853 439.946L19.8267 449.555C19.9243 452.287 20.1519 454.319 20.5096 455.652C21.0949 457.928 22.1355 459.392 23.6313 460.042L23.6313 461.652L11.7299 461.652C11.4047 461.034 11.1446 460.237 10.9495 459.262C10.7544 458.286 10.5918 456.4 10.4617 453.603L9.87639 441.653C9.64877 436.971 7.90908 433.833 4.65734 432.24C2.80384 431.362-0.106473 430.923-4.0736 430.923L-26.1692 430.923L-26.1692 461.652L-35.8757 461.652L-35.8757 389.999Z"
   id="path39" />
<path
   d="M-37.0463 504.877L-25.5839 504.877L10.608 562.921L10.608 504.877L19.8267 504.877L19.8267 576.529L8.94964 576.529L-27.7788 518.534L-27.7788 576.529L-37.0463 576.529L-37.0463 504.877Z"
   id="path40" />
<path
   d="M-34.8514 619.755L-25.0474 619.755L-25.0474 691.407L-34.8514 691.407L-34.8514 619.755Z"
   id="path41" />
<path
   d="M-37.0463 734.633L-25.5839 734.633L10.608 792.676L10.608 734.633L19.8267 734.633L19.8267 806.285L8.94964 806.285L-27.7788 748.29L-27.7788 806.285L-37.0463 806.285L-37.0463 734.633Z"
   id="path42" />
<path
   d="M-6.07343 847.657C0.657688 847.657 6.47832 848.957 11.3885 851.559C18.5098 855.298 22.8671 861.851 24.4605 871.216L14.8516 871.216C13.6809 865.98 11.2584 862.168 7.58391 859.778C3.90944 857.388-0.724305 856.193-6.31731 856.193C-12.9509 856.193-18.5358 858.68-23.0719 863.655C-27.6081 868.631-29.8762 876.044-29.8762 885.897C-29.8762 894.417-28.0065 901.351-24.267 906.7C-20.5274 912.049-14.4304 914.724-5.97588 914.724C0.495101 914.724 5.85235 912.846 10.0959 909.09C14.3394 905.335 16.51 899.262 16.6075 890.872L-5.82955 890.872L-5.82955 882.824L25.6311 882.824L25.6311 921.162L19.3878 921.162L17.0465 911.944C13.7622 915.553 10.8519 918.057 8.31555 919.455C4.05576 921.862-1.3584 923.065-7.92693 923.065C-16.414 923.065-23.7142 920.317-29.8274 914.822C-36.4935 907.928-39.8266 898.465-39.8266 886.434C-39.8266 874.435-36.5748 864.891-30.0713 857.802C-23.893 851.039-15.8937 847.657-6.07343 847.657Z"
   id="path43" />
<path
   d="M-10.1219 1015.8C-6.02465 1015.8-2.83794 1015.23-0.561717 1014.09C3.0152 1012.3 4.80367 1009.08 4.80367 1004.43C4.80367 999.751 2.90139 996.597-0.903151 994.971C-3.0493 994.06-6.23602 993.605-10.4633 993.605L-27.7788 993.605L-27.7788 1015.8L-10.1219 1015.8ZM-6.85385 1048.87C-0.903151 1048.87 3.34038 1047.14 5.87674 1043.7C7.4701 1041.52 8.26678 1038.89 8.26678 1035.8C8.26678 1030.59 5.94178 1027.05 1.29178 1025.16C-1.17955 1024.16-4.44756 1023.65-8.51224 1023.65L-27.7788 1023.65L-27.7788 1048.87L-6.85385 1048.87ZM-37.2902 985.508L-6.51242 985.508C1.87709 985.508 7.84405 988.012 11.3885 993.02C13.4696 995.979 14.5101 999.393 14.5101 1003.26C14.5101 1007.78 13.2257 1011.49 10.6568 1014.38C9.32359 1015.91 7.40506 1017.31 4.90122 1018.58C8.57569 1019.98 11.3234 1021.55 13.1444 1023.31C16.3636 1026.43 17.9732 1030.74 17.9732 1036.24C17.9732 1040.85 16.5262 1045.03 13.6322 1048.77C9.30734 1054.36 2.42989 1057.16-7.00018 1057.16L-37.2902 1057.16L-37.2902 985.508Z"
   id="path44" />
<path
   d="M-42.6068 1100.39L-31.2907 1100.39L-10.7072 1134.82L9.87639 1100.39L21.2412 1100.39L-5.82955 1143.16L-5.82955 1172.04L-15.536 1172.04L-15.536 1143.16L-42.6068 1100.39Z"
   id="path45" />
<path
   d="M-9.53654 1299.74C-6.25228 1299.74-3.55332 1299.4-1.43969 1298.72C2.33234 1297.45 5.4215 1295.01 7.82779 1291.4C9.74632 1288.51 11.1283 1284.8 11.9738 1280.28C12.4615 1277.58 12.7054 1275.08 12.7054 1272.77C12.7054 1263.89 10.9413 1257 7.41319 1252.09C3.88505 1247.18-1.79738 1244.72-9.63409 1244.72L-26.8521 1244.72L-26.8521 1299.74L-9.53654 1299.74ZM-36.6073 1236.38L-7.58549 1236.38C2.2673 1236.38 9.90891 1239.88 15.3393 1246.87C20.1844 1253.18 22.607 1261.26 22.607 1271.11C22.607 1278.72 21.1762 1285.6 18.3147 1291.74C13.2745 1302.61 4.60856 1308.04-7.68304 1308.04L-36.6073 1308.04L-36.6073 1236.38Z"
   id="path46" />
<path
   d="M-6.12221 1349.31C6.52709 1349.31 15.8921 1353.38 21.9729 1361.5C26.7204 1367.85 29.0942 1375.96 29.0942 1385.84C29.0942 1396.54 26.379 1405.44 20.9486 1412.52C14.5752 1420.85 5.48653 1425.01-6.31731 1425.01C-17.3407 1425.01-26.0066 1421.37-32.315 1414.09C-37.9406 1407.06-40.7533 1398.18-40.7533 1387.45C-40.7533 1377.76-38.347 1369.47-33.5344 1362.58C-27.3561 1353.73-18.2187 1349.31-6.12221 1349.31ZM-5.14668 1416.33C3.40541 1416.33 9.59186 1413.26 13.4127 1407.13C17.2335 1401 19.1439 1393.96 19.1439 1385.99C19.1439 1377.57 16.9408 1370.79 12.5347 1365.65C8.12858 1360.51 2.10472 1357.94-5.53689 1357.94C-12.9509 1357.94-18.9991 1360.49-23.6816 1365.58C-28.3642 1370.67-30.7054 1378.17-30.7054 1388.09C-30.7054 1396.02-28.6975 1402.71-24.6816 1408.16C-20.6656 1413.61-14.154 1416.33-5.14668 1416.33Z"
   id="path47" />
<path
   d="M-34.8514 1466.14L-25.0474 1466.14L-25.0474 1537.79L-34.8514 1537.79L-34.8514 1466.14Z"
   id="path48" />
<path
   d="M-37.0463 1581.02L-25.5839 1581.02L10.608 1639.06L10.608 1581.02L19.8267 1581.02L19.8267 1652.67L8.94964 1652.67L-27.7788 1594.67L-27.7788 1652.67L-37.0463 1652.67L-37.0463 1581.02Z"
   id="path49" />
<path
   d="M-6.07343 1694.04C0.657688 1694.04 6.47832 1695.34 11.3885 1697.94C18.5098 1701.68 22.8671 1708.23 24.4605 1717.6L14.8516 1717.6C13.6809 1712.36 11.2584 1708.55 7.58391 1706.16C3.90944 1703.77-0.724305 1702.58-6.31731 1702.58C-12.9509 1702.58-18.5358 1705.06-23.0719 1710.04C-27.6081 1715.01-29.8762 1722.43-29.8762 1732.28C-29.8762 1740.8-28.0065 1747.74-24.267 1753.08C-20.5274 1758.43-14.4304 1761.11-5.97588 1761.11C0.495101 1761.11 5.85235 1759.23 10.0959 1755.47C14.3394 1751.72 16.51 1745.65 16.6075 1737.26L-5.82955 1737.26L-5.82955 1729.21L25.6311 1729.21L25.6311 1767.55L19.3878 1767.55L17.0465 1758.33C13.7622 1761.94 10.8519 1764.44 8.31555 1765.84C4.05576 1768.25-1.3584 1769.45-7.92693 1769.45C-16.414 1769.45-23.7142 1766.7-29.8274 1761.21C-36.4935 1754.31-39.8266 1744.85-39.8266 1732.82C-39.8266 1720.82-36.5748 1711.28-30.0713 1704.19C-23.893 1697.42-15.8937 1694.04-6.07343 1694.04Z"
   id="path50" />
</g>
</g>
</svg>
